<?xml version="1.0" standalone="no"?>
<!DOCTYPE svg PUBLIC "-//W3C//DTD SVG 20010904//EN"
 "http://www.w3.org/TR/2001/REC-SVG-20010904/DTD/svg10.dtd">
<svg version="1.0" xmlns="http://www.w3.org/2000/svg"
 width="256.000000pt" height="256.000000pt" viewBox="0 0 256.000000 256.000000"
 preserveAspectRatio="xMidYMid meet">
<metadata>
Created by potrace 1.10, written by Peter Selinger 2001-2011
</metadata>
<g transform="translate(0.000000,256.000000) scale(0.100000,-0.100000)"
fill="#000000" stroke="none">
<path d="M80 1280 l0 -1200 1200 0 1200 0 0 1200 0 1200 -1200 0 -1200 0 0
-1200z m1270 720 l0 -150 -150 0 -150 0 0 150 0 150 150 0 150 0 0 -150z m570
-320 l0 -160 120 0 120 0 0 -120 0 -120 120 0 120 0 0 -160 0 -160 -520 0
-520 0 0 -120 0 -120 -160 0 -160 0 0 -120 0 -120 -280 0 -280 0 0 120 0 120
160 0 160 0 0 120 0 120 -320 0 -320 0 0 160 0 160 160 0 160 0 0 120 0 120
440 0 440 0 0 160 0 160 280 0 280 0 0 -160z"/>
<path d="M1070 2000 l0 -130 130 0 130 0 0 130 0 130 -130 0 -130 0 0 -130z
m240 0 l0 -110 -110 0 -110 0 0 110 0 110 110 0 110 0 0 -110z"/>
<path d="M1110 2000 l0 -90 90 0 90 0 0 90 0 90 -90 0 -90 0 0 -90z m170 0 l0
-80 -80 0 -80 0 0 80 0 80 80 0 80 0 0 -80z"/>
<path d="M1600 1400 l0 -120 160 0 160 0 0 120 0 120 -160 0 -160 0 0 -120z"/>
</g>
</svg>
